<mxfile host="app.diagrams.net" agent="Mozilla/5.0 (Windows NT 10.0; Win64; x64; rv:139.0) Gecko/20100101 Firefox/139.0" version="27.0.6">
  <diagram name="Page-1" id="L17xXZHHuUYxDRuQJ4fX">
    <mxGraphModel dx="909" dy="1025" grid="1" gridSize="10" guides="1" tooltips="1" connect="1" arrows="1" fold="1" page="1" pageScale="1" pageWidth="850" pageHeight="1100" math="0" shadow="0">
      <root>
        <mxCell id="0" />
        <mxCell id="1" parent="0" />
        <mxCell id="QlAEBDYwZQ3NaORT2iDD-1" value="מדידת טמפרטורה ולחות" style="text;html=1;align=center;verticalAlign=middle;resizable=0;points=[];autosize=1;strokeColor=#001DBC;fillColor=#0050ef;fontColor=#ffffff;" parent="1" vertex="1">
          <mxGeometry x="1535" y="40" width="140" height="30" as="geometry" />
        </mxCell>
        <mxCell id="QlAEBDYwZQ3NaORT2iDD-2" value="מדידת רמת אור בסביבה" style="text;html=1;align=center;verticalAlign=middle;resizable=0;points=[];autosize=1;strokeColor=#001DBC;fillColor=#0050ef;fontColor=#ffffff;" parent="1" vertex="1">
          <mxGeometry x="1535" y="82" width="140" height="30" as="geometry" />
        </mxCell>
        <mxCell id="QlAEBDYwZQ3NaORT2iDD-3" value="פתיחה/סגירה של וילון (מנוע)" style="text;html=1;align=center;verticalAlign=middle;resizable=0;points=[];autosize=1;strokeColor=#001DBC;fillColor=#0050ef;fontColor=#ffffff;" parent="1" vertex="1">
          <mxGeometry x="1510" y="122" width="160" height="30" as="geometry" />
        </mxCell>
        <mxCell id="QlAEBDYwZQ3NaORT2iDD-4" value="&amp;nbsp;הצגת המידע בתצוגה" style="text;html=1;align=center;verticalAlign=middle;resizable=0;points=[];autosize=1;strokeColor=#001DBC;fillColor=#0050ef;fontColor=#ffffff;" parent="1" vertex="1">
          <mxGeometry x="1550" y="162" width="120" height="30" as="geometry" />
        </mxCell>
        <mxCell id="QlAEBDYwZQ3NaORT2iDD-5" value="&amp;nbsp;שליטה דרך הטלפון" style="text;html=1;align=center;verticalAlign=middle;resizable=0;points=[];autosize=1;strokeColor=#001DBC;fillColor=#0050ef;fontColor=#ffffff;" parent="1" vertex="1">
          <mxGeometry x="1560" y="202" width="110" height="30" as="geometry" />
        </mxCell>
        <mxCell id="QlAEBDYwZQ3NaORT2iDD-6" value="עם חיישן DHT11 או DHT22." style="text;html=1;align=center;verticalAlign=middle;resizable=0;points=[];autosize=1;strokeColor=#2D7600;fillColor=#60a917;fontColor=#ffffff;" parent="1" vertex="1">
          <mxGeometry x="1360" y="40" width="160" height="30" as="geometry" />
        </mxCell>
        <mxCell id="QlAEBDYwZQ3NaORT2iDD-7" value="עם חיישן LDR." style="text;html=1;align=center;verticalAlign=middle;resizable=0;points=[];autosize=1;strokeColor=#2D7600;fillColor=#60a917;fontColor=#ffffff;" parent="1" vertex="1">
          <mxGeometry x="1430" y="82" width="90" height="30" as="geometry" />
        </mxCell>
        <mxCell id="QlAEBDYwZQ3NaORT2iDD-9" value="לפי חום או אור, או שליטה ידנית." style="text;html=1;align=center;verticalAlign=middle;resizable=0;points=[];autosize=1;strokeColor=#2D7600;fillColor=#60a917;fontColor=#ffffff;" parent="1" vertex="1">
          <mxGeometry x="1320" y="122" width="170" height="30" as="geometry" />
        </mxCell>
        <mxCell id="QlAEBDYwZQ3NaORT2iDD-10" value="OLED או LCD." style="text;html=1;align=center;verticalAlign=middle;resizable=0;points=[];autosize=1;strokeColor=#2D7600;fillColor=#60a917;fontColor=#ffffff;" parent="1" vertex="1">
          <mxGeometry x="1430" y="162" width="100" height="30" as="geometry" />
        </mxCell>
        <mxCell id="QlAEBDYwZQ3NaORT2iDD-11" value="דרך Wi-Fi עם דף פשוט." style="text;html=1;align=center;verticalAlign=middle;resizable=0;points=[];autosize=1;strokeColor=#2D7600;fillColor=#60a917;fontColor=#ffffff;" parent="1" vertex="1">
          <mxGeometry x="1400" y="202" width="140" height="30" as="geometry" />
        </mxCell>
        <mxCell id="QlAEBDYwZQ3NaORT2iDD-12" value="&lt;div align=&quot;right&quot;&gt;&amp;nbsp;איך זה ייראה:&lt;li data-end=&quot;1157&quot; data-start=&quot;1057&quot;&gt;&lt;p data-end=&quot;1070&quot; data-start=&quot;1059&quot;&gt;תצוגה מראה&lt;/p&gt;&lt;ul data-end=&quot;1157&quot; data-start=&quot;1073&quot;&gt;&lt;li data-end=&quot;1089&quot; data-start=&quot;1073&quot;&gt;&lt;p data-end=&quot;1089&quot; data-start=&quot;1075&quot;&gt;טמפרטורה: 27°C&lt;/p&gt;&lt;/li&gt;&lt;li data-end=&quot;1103&quot; data-start=&quot;1092&quot;&gt;&lt;p data-end=&quot;1103&quot; data-start=&quot;1094&quot;&gt;לחות: 65%&lt;/p&gt;&lt;/li&gt;&lt;li data-end=&quot;1117&quot; data-start=&quot;1106&quot;&gt;&lt;p data-end=&quot;1117&quot; data-start=&quot;1108&quot;&gt;אור: נמוך&lt;/p&gt;&lt;/li&gt;&lt;li data-end=&quot;1157&quot; data-start=&quot;1141&quot;&gt;&lt;p data-end=&quot;1157&quot; data-start=&quot;1143&quot;&gt;מצב תריס: וילון&lt;/p&gt;&lt;/li&gt;&lt;/ul&gt;&lt;p data-end=&quot;1180&quot; data-start=&quot;1161&quot;&gt;בדפדפן בטלפון תוכל:&lt;/p&gt;&lt;ul data-end=&quot;1255&quot; data-start=&quot;1183&quot;&gt;&lt;li data-end=&quot;1207&quot; data-start=&quot;1183&quot;&gt;&lt;p data-end=&quot;1207&quot; data-start=&quot;1185&quot;&gt;לראות את אותם הנתונים.&lt;/p&gt;&lt;/li&gt;&lt;li data-end=&quot;1255&quot; data-start=&quot;1210&quot;&gt;&lt;p data-end=&quot;1255&quot; data-start=&quot;1212&quot;&gt;ללחוץ על כפתור &quot;הפעל מאוורר&quot; / &quot;סגור תריס&quot;.&lt;/p&gt;&lt;/li&gt;&lt;/ul&gt;&lt;/li&gt;&lt;/div&gt;" style="text;html=1;align=right;verticalAlign=middle;resizable=0;points=[];autosize=1;strokeColor=#6F0000;fillColor=#a20025;fontColor=#ffffff;" parent="1" vertex="1">
          <mxGeometry x="1400" y="257" width="280" height="250" as="geometry" />
        </mxCell>
        <mxCell id="870cP2tfU2k5j4axQSe5-1" value="&lt;h1&gt;&lt;b&gt;תחנת בקרה חכמה לבית&lt;/b&gt;&lt;/h1&gt;" style="rounded=0;whiteSpace=wrap;html=1;" vertex="1" parent="1">
          <mxGeometry x="720" y="62" width="260" height="60" as="geometry" />
        </mxCell>
        <mxCell id="870cP2tfU2k5j4axQSe5-5" style="edgeStyle=orthogonalEdgeStyle;rounded=0;orthogonalLoop=1;jettySize=auto;html=1;exitX=0.5;exitY=1;exitDx=0;exitDy=0;entryX=0.5;entryY=0;entryDx=0;entryDy=0;" edge="1" parent="1" source="870cP2tfU2k5j4axQSe5-3" target="870cP2tfU2k5j4axQSe5-4">
          <mxGeometry relative="1" as="geometry">
            <mxPoint x="890" y="300" as="targetPoint" />
          </mxGeometry>
        </mxCell>
        <mxCell id="870cP2tfU2k5j4axQSe5-3" value="&lt;font style=&quot;font-size: 16px;&quot;&gt;Power Supply&lt;br&gt;5V / 3.3V&lt;/font&gt;" style="rounded=0;whiteSpace=wrap;html=1;" vertex="1" parent="1">
          <mxGeometry x="790" y="162" width="120" height="60" as="geometry" />
        </mxCell>
        <mxCell id="870cP2tfU2k5j4axQSe5-9" style="edgeStyle=orthogonalEdgeStyle;rounded=0;orthogonalLoop=1;jettySize=auto;html=1;exitX=0;exitY=0.5;exitDx=0;exitDy=0;entryX=1;entryY=0.5;entryDx=0;entryDy=0;" edge="1" parent="1" source="870cP2tfU2k5j4axQSe5-4" target="870cP2tfU2k5j4axQSe5-7">
          <mxGeometry relative="1" as="geometry" />
        </mxCell>
        <mxCell id="870cP2tfU2k5j4axQSe5-13" style="edgeStyle=orthogonalEdgeStyle;rounded=0;orthogonalLoop=1;jettySize=auto;html=1;exitX=0.5;exitY=1;exitDx=0;exitDy=0;entryX=0.5;entryY=0;entryDx=0;entryDy=0;" edge="1" parent="1" source="870cP2tfU2k5j4axQSe5-4" target="870cP2tfU2k5j4axQSe5-11">
          <mxGeometry relative="1" as="geometry" />
        </mxCell>
        <mxCell id="870cP2tfU2k5j4axQSe5-15" style="edgeStyle=orthogonalEdgeStyle;rounded=0;orthogonalLoop=1;jettySize=auto;html=1;exitX=0.5;exitY=1;exitDx=0;exitDy=0;entryX=0.5;entryY=0;entryDx=0;entryDy=0;" edge="1" parent="1" source="870cP2tfU2k5j4axQSe5-4" target="870cP2tfU2k5j4axQSe5-14">
          <mxGeometry relative="1" as="geometry" />
        </mxCell>
        <mxCell id="870cP2tfU2k5j4axQSe5-20" style="edgeStyle=orthogonalEdgeStyle;rounded=0;orthogonalLoop=1;jettySize=auto;html=1;exitX=0.5;exitY=1;exitDx=0;exitDy=0;entryX=0.5;entryY=0;entryDx=0;entryDy=0;" edge="1" parent="1" source="870cP2tfU2k5j4axQSe5-4" target="870cP2tfU2k5j4axQSe5-16">
          <mxGeometry relative="1" as="geometry" />
        </mxCell>
        <mxCell id="870cP2tfU2k5j4axQSe5-4" value="&lt;font style=&quot;font-size: 16px;&quot;&gt;ESP32&lt;/font&gt;&lt;div&gt;&lt;font style=&quot;font-size: 16px;&quot;&gt;(בקר ראשי)&lt;/font&gt;&lt;/div&gt;" style="rounded=0;whiteSpace=wrap;html=1;" vertex="1" parent="1">
          <mxGeometry x="790" y="290" width="120" height="60" as="geometry" />
        </mxCell>
        <mxCell id="870cP2tfU2k5j4axQSe5-7" value="&lt;br&gt;&lt;strong data-end=&quot;450&quot; data-start=&quot;435&quot;&gt;OLED מסך&lt;/strong&gt;&lt;div&gt;&lt;br/&gt;&lt;/div&gt;" style="rounded=0;whiteSpace=wrap;html=1;" vertex="1" parent="1">
          <mxGeometry x="540" y="290" width="120" height="60" as="geometry" />
        </mxCell>
        <mxCell id="870cP2tfU2k5j4axQSe5-11" value="&lt;strong data-end=&quot;334&quot; data-start=&quot;325&quot;&gt;DHT22&lt;/strong&gt; – חיישן טמפרטורה ולחות" style="rounded=0;whiteSpace=wrap;html=1;" vertex="1" parent="1">
          <mxGeometry x="930" y="507" width="120" height="60" as="geometry" />
        </mxCell>
        <mxCell id="870cP2tfU2k5j4axQSe5-14" value="&lt;strong data-end=&quot;370&quot; data-start=&quot;363&quot;&gt;LDR&lt;/strong&gt; (חיישן אור) + נגד 10kΩ – למדידת רמת אור" style="rounded=0;whiteSpace=wrap;html=1;" vertex="1" parent="1">
          <mxGeometry x="790" y="507" width="120" height="60" as="geometry" />
        </mxCell>
        <mxCell id="870cP2tfU2k5j4axQSe5-16" value="" style="rounded=0;whiteSpace=wrap;html=1;" vertex="1" parent="1">
          <mxGeometry x="650" y="507" width="120" height="60" as="geometry" />
        </mxCell>
        <mxCell id="870cP2tfU2k5j4axQSe5-17" value="" style="rounded=0;whiteSpace=wrap;html=1;" vertex="1" parent="1">
          <mxGeometry x="1070" y="507" width="120" height="60" as="geometry" />
        </mxCell>
      </root>
    </mxGraphModel>
  </diagram>
</mxfile>
